<svg width="712" height="147" viewBox="0 0 712 147" fill="none" xmlns="http://www.w3.org/2000/svg">
<path d="M176.097 103.92C171.778 103.92 167.902 102.895 164.469 100.846C161.092 98.7424 158.406 95.9185 156.413 92.3748C154.475 88.8311 153.506 84.8444 153.506 80.4148C153.506 75.9852 154.503 71.9985 156.496 68.4548C158.489 64.9111 161.175 62.1149 164.552 60.0662C167.93 58.0175 171.751 56.9932 176.014 56.9932C179.613 56.9932 182.797 57.713 185.565 59.1526C188.334 60.5922 190.521 62.5856 192.127 65.1326L190.715 67.292V40.0498H200.017V102.923H191.13V93.7867L192.21 95.5309C190.66 98.2441 188.445 100.32 185.565 101.76C182.686 103.2 179.53 103.92 176.097 103.92ZM177.011 95.1987C179.613 95.1987 181.939 94.5619 183.987 93.2884C186.091 92.0149 187.725 90.2707 188.888 88.0559C190.106 85.7857 190.715 83.2387 190.715 80.4148C190.715 77.5909 190.106 75.0716 188.888 72.8568C187.725 70.6419 186.091 68.8978 183.987 67.6243C181.939 66.3507 179.613 65.714 177.011 65.714C174.408 65.714 172.055 66.3507 169.951 67.6243C167.847 68.8978 166.213 70.6419 165.051 72.8568C163.888 75.0716 163.307 77.5909 163.307 80.4148C163.307 83.2387 163.888 85.7857 165.051 88.0559C166.213 90.2707 167.819 92.0149 169.868 93.2884C171.972 94.5619 174.353 95.1987 177.011 95.1987ZM232.07 103.92C227.585 103.92 223.598 102.895 220.11 100.846C216.677 98.7424 213.992 95.9185 212.054 92.3748C210.116 88.7757 209.147 84.7614 209.147 80.3318C209.147 75.7914 210.116 71.777 212.054 68.2887C214.047 64.8004 216.705 62.0595 220.027 60.0662C223.349 58.0175 227.114 56.9932 231.323 56.9932C234.7 56.9932 237.718 57.5745 240.376 58.7373C243.033 59.9001 245.276 61.5058 247.103 63.5545C248.93 65.5479 250.315 67.8457 251.256 70.4481C252.253 73.0506 252.751 75.8191 252.751 78.7537C252.751 79.4735 252.723 80.221 252.668 80.9962C252.612 81.7714 252.502 82.4912 252.336 83.1556H216.539V75.6806H247.02L242.535 79.0859C243.089 76.3728 242.895 73.9642 241.954 71.8601C241.068 69.7006 239.683 68.0119 237.801 66.7937C235.974 65.5202 233.814 64.8834 231.323 64.8834C228.831 64.8834 226.616 65.5202 224.678 66.7937C222.74 68.0119 221.245 69.7837 220.193 72.1093C219.141 74.3794 218.726 77.148 218.947 80.4148C218.67 83.4602 219.086 86.118 220.193 88.3881C221.356 90.6583 222.962 92.4302 225.01 93.7037C227.114 94.9772 229.495 95.614 232.153 95.614C234.866 95.614 237.164 95.0049 239.047 93.7867C240.985 92.5686 242.507 90.9905 243.615 89.0526L251.256 92.7901C250.37 94.8942 248.986 96.8044 247.103 98.5209C245.276 100.182 243.061 101.511 240.459 102.508C237.912 103.449 235.115 103.92 232.07 103.92ZM283.006 103.92C278.521 103.92 274.535 102.895 271.046 100.846C267.613 98.7424 264.928 95.9185 262.99 92.3748C261.052 88.7757 260.083 84.7614 260.083 80.3318C260.083 75.7914 261.052 71.777 262.99 68.2887C264.983 64.8004 267.641 62.0595 270.963 60.0662C274.286 58.0175 278.051 56.9932 282.259 56.9932C285.636 56.9932 288.654 57.5745 291.312 58.7373C293.97 59.9001 296.212 61.5058 298.039 63.5545C299.867 65.5479 301.251 67.8457 302.192 70.4481C303.189 73.0506 303.687 75.8191 303.687 78.7537C303.687 79.4735 303.66 80.221 303.604 80.9962C303.549 81.7714 303.438 82.4912 303.272 83.1556H267.475V75.6806H297.956L293.471 79.0859C294.025 76.3728 293.831 73.9642 292.89 71.8601C292.004 69.7006 290.62 68.0119 288.737 66.7937C286.91 65.5202 284.751 64.8834 282.259 64.8834C279.767 64.8834 277.552 65.5202 275.614 66.7937C273.677 68.0119 272.182 69.7837 271.129 72.1093C270.077 74.3794 269.662 77.148 269.884 80.4148C269.607 83.4602 270.022 86.118 271.129 88.3881C272.292 90.6583 273.898 92.4302 275.947 93.7037C278.051 94.9772 280.432 95.614 283.089 95.614C285.803 95.614 288.1 95.0049 289.983 93.7867C291.921 92.5686 293.444 90.9905 294.551 89.0526L302.192 92.7901C301.306 94.8942 299.922 96.8044 298.039 98.5209C296.212 100.182 293.997 101.511 291.395 102.508C288.848 103.449 286.052 103.92 283.006 103.92ZM312.847 119.534V57.9898H321.817V67.292L320.737 65.1326C322.398 62.5856 324.613 60.5922 327.381 59.1526C330.15 57.713 333.306 56.9932 336.85 56.9932C341.113 56.9932 344.934 58.0175 348.311 60.0662C351.744 62.1149 354.43 64.9111 356.368 68.4548C358.361 71.9985 359.358 75.9852 359.358 80.4148C359.358 84.8444 358.361 88.8311 356.368 92.3748C354.43 95.9185 351.772 98.7424 348.394 100.846C345.017 102.895 341.169 103.92 336.85 103.92C333.361 103.92 330.178 103.2 327.298 101.76C324.474 100.32 322.287 98.2441 320.737 95.5309L322.232 93.7867V119.534H312.847ZM335.936 95.1987C338.594 95.1987 340.947 94.5619 342.996 93.2884C345.045 92.0149 346.65 90.2707 347.813 88.0559C349.031 85.7857 349.64 83.2387 349.64 80.4148C349.64 77.5909 349.031 75.0716 347.813 72.8568C346.65 70.6419 345.045 68.8978 342.996 67.6243C340.947 66.3507 338.594 65.714 335.936 65.714C333.334 65.714 330.98 66.3507 328.876 67.6243C326.828 68.8978 325.194 70.6419 323.976 72.8568C322.813 75.0716 322.232 77.5909 322.232 80.4148C322.232 83.2387 322.813 85.7857 323.976 88.0559C325.194 90.2707 326.828 92.0149 328.876 93.2884C330.98 94.5619 333.334 95.1987 335.936 95.1987ZM387.111 103.421C382.405 103.421 378.75 102.092 376.148 99.4345C373.546 96.7767 372.244 93.0392 372.244 88.222V66.4615H364.354V57.9898H365.6C367.704 57.9898 369.337 57.3807 370.5 56.1626C371.663 54.9445 372.244 53.2833 372.244 51.1793V47.6909H381.63V57.9898H391.845V66.4615H381.63V87.8067C381.63 89.3571 381.879 90.686 382.377 91.7934C382.875 92.8455 383.678 93.676 384.786 94.2851C385.893 94.8388 387.333 95.1156 389.105 95.1156C389.548 95.1156 390.046 95.0879 390.6 95.0326C391.153 94.9772 391.679 94.9218 392.178 94.8665V102.923C391.402 103.034 390.544 103.144 389.603 103.255C388.662 103.366 387.831 103.421 387.111 103.421ZM421.621 103.92C417.136 103.92 413.15 102.895 409.662 100.846C406.229 98.7424 403.543 95.9185 401.605 92.3748C399.667 88.7757 398.698 84.7614 398.698 80.3318C398.698 75.7914 399.667 71.777 401.605 68.2887C403.598 64.8004 406.256 62.0595 409.578 60.0662C412.901 58.0175 416.666 56.9932 420.874 56.9932C424.252 56.9932 427.269 57.5745 429.927 58.7373C432.585 59.9001 434.827 61.5058 436.655 63.5545C438.482 65.5479 439.866 67.8457 440.807 70.4481C441.804 73.0506 442.302 75.8191 442.302 78.7537C442.302 79.4735 442.275 80.221 442.219 80.9962C442.164 81.7714 442.053 82.4912 441.887 83.1556H406.09V75.6806H436.571L432.086 79.0859C432.64 76.3728 432.446 73.9642 431.505 71.8601C430.619 69.7006 429.235 68.0119 427.352 66.7937C425.525 65.5202 423.366 64.8834 420.874 64.8834C418.382 64.8834 416.168 65.5202 414.23 66.7937C412.292 68.0119 410.797 69.7837 409.745 72.1093C408.693 74.3794 408.277 77.148 408.499 80.4148C408.222 83.4602 408.637 86.118 409.745 88.3881C410.907 90.6583 412.513 92.4302 414.562 93.7037C416.666 94.9772 419.047 95.614 421.705 95.614C424.418 95.614 426.716 95.0049 428.598 93.7867C430.536 92.5686 432.059 90.9905 433.166 89.0526L440.807 92.7901C439.921 94.8942 438.537 96.8044 436.655 98.5209C434.827 100.182 432.613 101.511 430.01 102.508C427.463 103.449 424.667 103.92 421.621 103.92ZM472.807 103.92C468.322 103.92 464.335 102.895 460.847 100.846C457.414 98.7424 454.673 95.9185 452.625 92.3748C450.631 88.8311 449.635 84.8168 449.635 80.3318C449.635 75.9021 450.631 71.9155 452.625 68.3718C454.618 64.8281 457.359 62.0595 460.847 60.0662C464.335 58.0175 468.322 56.9932 472.807 56.9932C475.852 56.9932 478.704 57.5469 481.362 58.6543C484.02 59.7063 486.317 61.1736 488.255 63.0562C490.249 64.9388 491.716 67.1259 492.657 69.6176L484.435 73.4381C483.494 71.1126 481.971 69.2577 479.867 67.8734C477.818 66.4338 475.465 65.714 472.807 65.714C470.26 65.714 467.962 66.3507 465.913 67.6243C463.92 68.8424 462.342 70.5866 461.179 72.8568C460.016 75.0716 459.435 77.5909 459.435 80.4148C459.435 83.2387 460.016 85.7857 461.179 88.0559C462.342 90.2707 463.92 92.0149 465.913 93.2884C467.962 94.5619 470.26 95.1987 472.807 95.1987C475.52 95.1987 477.873 94.5066 479.867 93.1223C481.915 91.6827 483.438 89.7724 484.435 87.3915L492.657 91.2951C491.771 93.676 490.332 95.8354 488.338 97.7734C486.4 99.656 484.103 101.151 481.445 102.258C478.787 103.366 475.908 103.92 472.807 103.92ZM501.83 102.923V40.0498H511.216V66.7937L509.721 65.6309C510.828 62.807 512.6 60.6753 515.036 59.2357C517.473 57.7407 520.296 56.9932 523.508 56.9932C526.83 56.9932 529.765 57.713 532.312 59.1526C534.859 60.5922 536.852 62.5856 538.292 65.1326C539.731 67.6796 540.451 70.5866 540.451 73.8534V102.923H531.149V76.4281C531.149 74.158 530.706 72.2477 529.82 70.6973C528.99 69.0916 527.827 67.8734 526.332 67.0429C524.837 66.1569 523.12 65.714 521.182 65.714C519.3 65.714 517.583 66.1569 516.033 67.0429C514.538 67.8734 513.347 69.0916 512.462 70.6973C511.631 72.3031 511.216 74.2133 511.216 76.4281V102.923H501.83ZM550.496 102.923V40.0498H559.881V102.923H550.496ZM584.309 103.92C581.264 103.92 578.578 103.393 576.253 102.341C573.982 101.234 572.211 99.7391 570.937 97.8565C569.664 95.9185 569.027 93.6483 569.027 91.0459C569.027 88.6096 569.553 86.4225 570.605 84.4845C571.712 82.5466 573.401 80.9131 575.671 79.5843C577.941 78.2554 580.793 77.3141 584.226 76.7604L599.84 74.1856V81.5776L586.053 83.9862C583.562 84.4292 581.734 85.232 580.572 86.3948C579.409 87.5022 578.827 88.9418 578.827 90.7137C578.827 92.4302 579.464 93.8421 580.738 94.9495C582.067 96.0016 583.755 96.5276 585.804 96.5276C588.351 96.5276 590.566 95.9739 592.449 94.8665C594.386 93.7591 595.881 92.2917 596.933 90.4645C597.986 88.5819 598.512 86.5055 598.512 84.2354V72.6906C598.512 70.4758 597.681 68.6763 596.02 67.292C594.414 65.8524 592.255 65.1326 589.542 65.1326C587.05 65.1326 584.863 65.797 582.98 67.1259C581.153 68.3994 579.796 70.0606 578.91 72.1093L571.103 68.2056C571.934 65.9908 573.29 64.0529 575.173 62.3918C577.056 60.6753 579.243 59.3464 581.734 58.4051C584.281 57.4638 586.967 56.9932 589.791 56.9932C593.334 56.9932 596.463 57.6576 599.176 58.9865C601.945 60.3154 604.076 62.1703 605.571 64.5512C607.122 66.8768 607.897 69.5899 607.897 72.6906V102.923H598.927V94.7834L600.837 95.0326C599.785 96.8598 598.428 98.4379 596.767 99.7667C595.162 101.096 593.307 102.12 591.203 102.84C589.154 103.56 586.856 103.92 584.309 103.92ZM642.874 103.92C639.385 103.92 636.201 103.2 633.322 101.76C630.498 100.32 628.311 98.2441 626.761 95.5309L627.841 93.7867V102.923H618.871V40.0498H628.256V67.292L626.761 65.1326C628.422 62.5856 630.637 60.5922 633.405 59.1526C636.174 57.713 639.33 56.9932 642.874 56.9932C647.137 56.9932 650.958 58.0175 654.335 60.0662C657.768 62.1149 660.454 64.9111 662.392 68.4548C664.385 71.9985 665.382 75.9852 665.382 80.4148C665.382 84.8444 664.385 88.8311 662.392 92.3748C660.454 95.9185 657.796 98.7424 654.418 100.846C651.041 102.895 647.192 103.92 642.874 103.92ZM641.96 95.1987C644.618 95.1987 646.971 94.5619 649.02 93.2884C651.068 92.0149 652.674 90.2707 653.837 88.0559C655.055 85.7857 655.664 83.2387 655.664 80.4148C655.664 77.5909 655.055 75.0716 653.837 72.8568C652.674 70.6419 651.068 68.8978 649.02 67.6243C646.971 66.3507 644.618 65.714 641.96 65.714C639.358 65.714 637.004 66.3507 634.9 67.6243C632.852 68.8978 631.218 70.6419 630 72.8568C628.837 75.0716 628.256 77.5909 628.256 80.4148C628.256 83.2387 628.837 85.7857 630 88.0559C631.218 90.2707 632.852 92.0149 634.9 93.2884C637.004 94.5619 639.358 95.1987 641.96 95.1987ZM691.122 103.92C686.527 103.92 682.485 102.784 678.996 100.514C675.563 98.2441 673.155 95.1987 671.77 91.3781L678.996 87.9729C680.214 90.5199 681.875 92.5409 683.98 94.0359C686.139 95.5309 688.52 96.2784 691.122 96.2784C693.337 96.2784 695.137 95.7801 696.521 94.7834C697.905 93.7867 698.597 92.4302 698.597 90.7137C698.597 89.6063 698.293 88.7204 697.684 88.0559C697.075 87.3361 696.299 86.7547 695.358 86.3118C694.472 85.8688 693.559 85.5366 692.617 85.3151L685.558 83.3218C681.682 82.2143 678.775 80.5532 676.837 78.3384C674.954 76.0682 674.013 73.4381 674.013 70.4481C674.013 67.735 674.705 65.3818 676.089 63.3884C677.474 61.3397 679.384 59.7617 681.82 58.6543C684.256 57.5469 686.997 56.9932 690.043 56.9932C694.14 56.9932 697.794 58.0175 701.006 60.0662C704.217 62.0595 706.488 64.8557 707.816 68.4548L700.591 71.8601C699.705 69.7006 698.293 67.9842 696.355 66.7107C694.472 65.4371 692.34 64.8004 689.96 64.8004C687.911 64.8004 686.277 65.2987 685.059 66.2954C683.841 67.2367 683.232 68.4825 683.232 70.0329C683.232 71.0849 683.509 71.9708 684.063 72.6906C684.616 73.3551 685.336 73.9088 686.222 74.3518C687.108 74.7393 688.022 75.0716 688.963 75.3484L696.272 77.5079C699.982 78.5599 702.833 80.221 704.826 82.4912C706.82 84.706 707.816 87.3638 707.816 90.4645C707.816 93.1223 707.097 95.4755 705.657 97.5242C704.273 99.5176 702.335 101.096 699.843 102.258C697.351 103.366 694.445 103.92 691.122 103.92Z" fill="white"/>
<path d="M76.6697 108.678L23.881 122.305L30.6885 112.085L76.167 88.2741L76.6697 108.678Z" fill="#05FF9A"/>
<path d="M68.182 132.602L29.5173 140.679L36.2461 131.658L76.748 119.751L68.182 132.602Z" fill="#05FF9A"/>
<mask id="path-4-inside-1_569_9" fill="white">
<path d="M76.677 108.678C85.1937 93.3475 88.6003 88.2375 92.7558 80.7052C99.6457 68.2165 104.451 59.1798 104.053 46.9472C103.201 20.829 79.4675 0.752207 51.5229 1.66335C23.5783 2.57449 0.679116 24.1717 1.5361 50.4552C1.92955 62.5225 10.3152 78.0435 11.6046 80.7052C12.894 83.3668 16.7622 89.8138 21.9198 98.8396"/>
</mask>
<path d="M92.7558 80.7052L77.8141 72.462L92.7558 80.7052ZM91.5942 116.965C95.7632 109.461 98.6686 104.48 101.056 100.428C103.421 96.4119 105.472 92.9817 107.698 88.9483L77.8141 72.462C75.8838 75.9609 74.1542 78.8519 71.6481 83.1067C69.1637 87.3247 66.1074 92.5644 61.7597 100.39L91.5942 116.965ZM107.698 88.9483C114.341 76.906 121.681 63.9535 121.108 46.3911L86.9969 47.5033C87.2219 54.406 84.9502 59.5271 77.8141 72.462L107.698 88.9483ZM121.108 46.3911C119.904 9.46256 86.8773 -16.5632 50.9668 -15.3923L52.079 18.719C72.0577 18.0676 86.4977 32.1954 86.9969 47.5033L121.108 46.3911ZM50.9668 -15.3923C15.2508 -14.2278 -16.7348 13.7405 -15.5196 51.0113L18.5917 49.8991C18.093 34.6029 31.9058 19.3768 52.079 18.719L50.9668 -15.3923ZM-15.5196 51.0113C-15.2224 60.1256 -12.0914 69.2903 -9.59236 75.4884C-8.25748 78.7993 -6.90903 81.7245 -5.82652 83.9681C-5.28322 85.0942 -4.8024 86.0577 -4.42683 86.8044C-4.26602 87.124 -4.05298 87.5457 -3.95822 87.7339C-3.89655 87.8564 -3.84899 87.9512 -3.81129 88.0269C-3.79288 88.0638 -3.77887 88.0921 -3.76845 88.1133C-3.76334 88.1236 -3.75951 88.1314 -3.75681 88.137C-3.75409 88.1425 -3.75286 88.1451 -3.75294 88.1449L26.9622 73.2654C26.0117 71.3034 24.0794 67.732 22.0611 62.7262C19.9466 57.4816 18.688 52.8521 18.5917 49.8991L-15.5196 51.0113ZM-3.75294 88.1449C-2.12856 91.498 2.42746 99.123 7.10352 107.306L36.7362 90.3732C31.097 80.5046 27.9166 75.2356 26.9622 73.2654L-3.75294 88.1449Z" fill="#05FF9A" mask="url(#path-4-inside-1_569_9)"/>
</svg>
